<svg xmlns="http://www.w3.org/2000/svg" viewBox="0 0 512 512" role="img" aria-labelledby="title desc">
  <title id="title">Daycam icon</title>
  <desc id="desc">A camera frame with a warm timestamp mark and alignment guide.</desc>
  <defs>
    <linearGradient id="bg" x1="72" x2="440" y1="72" y2="440" gradientUnits="userSpaceOnUse">
      <stop offset="0" stop-color="#24211a" />
      <stop offset="1" stop-color="#171612" />
    </linearGradient>
    <linearGradient id="accent" x1="128" x2="392" y1="128" y2="392" gradientUnits="userSpaceOnUse">
      <stop offset="0" stop-color="#fff3d0" />
      <stop offset="0.46" stop-color="#e3ae48" />
      <stop offset="1" stop-color="#db543d" />
    </linearGradient>
  </defs>
  <rect width="512" height="512" rx="96" fill="url(#bg)" />
  <rect x="82" y="82" width="348" height="348" rx="52" fill="none" stroke="#f4efe4" stroke-opacity=".22" stroke-width="20" />
  <path d="M170 138h112l24 38h58c24 0 44 20 44 44v126c0 24-20 44-44 44H148c-24 0-44-20-44-44V220c0-24 20-44 44-44h28l-6-38Z" fill="#050505" stroke="#f4efe4" stroke-opacity=".34" stroke-width="18" stroke-linejoin="round" />
  <circle cx="256" cy="278" r="82" fill="none" stroke="#2aa7a1" stroke-width="18" />
  <circle cx="256" cy="278" r="48" fill="url(#accent)" />
  <path d="M256 138v58M256 360v54M138 256h58M360 256h54" stroke="#f4efe4" stroke-linecap="round" stroke-opacity=".72" stroke-width="16" />
  <path d="M346 170h34" stroke="#db543d" stroke-linecap="round" stroke-width="18" />
  <path d="M154 354h118" stroke="#fff3d0" stroke-linecap="round" stroke-width="18" />
  <path d="M154 318h64" stroke="#e3ae48" stroke-linecap="round" stroke-width="14" />
</svg>
